<?xml version="1.0" standalone="no"?>
<!DOCTYPE svg PUBLIC "-//W3C//DTD SVG 20010904//EN"
 "http://www.w3.org/TR/2001/REC-SVG-20010904/DTD/svg10.dtd">
<svg version="1.0" xmlns="http://www.w3.org/2000/svg"
 width="360.000000pt" height="360.000000pt" viewBox="0 0 360.000000 360.000000"
 preserveAspectRatio="xMidYMid meet">
<metadata>
Created by potrace 1.14, written by Peter Selinger 2001-2017
</metadata>
<g transform="translate(0.000000,360.000000) scale(0.100000,-0.100000)"
fill="#000000" stroke="none">
<path d="M0 2200 l0 -1400 1800 0 1800 0 0 620 0 620 -644 0 -644 0 -4 46 c-2
25 -1 47 1 50 2 2 294 4 648 4 l643 0 0 730 0 730 -1800 0 -1800 0 0 -1400z
m1383 867 c10 -25 -8 -34 -83 -41 -41 -3 -103 -12 -137 -19 -68 -15 -72 -7
-12 23 84 43 221 65 232 37z m152 -82 c38 -8 98 -24 133 -36 59 -20 62 -22 48
-38 -10 -11 -16 -36 -16 -63 0 -45 -1 -45 -37 -52 -21 -3 -58 -6 -83 -6 -40 0
-51 -6 -108 -56 l-62 -56 -43 20 c-31 15 -73 22 -162 27 l-120 7 -29 -31 -30
-31 -117 0 c-132 0 -129 2 -129 -78 0 -36 -7 -56 -30 -86 -27 -35 -28 -42 -17
-60 26 -39 40 -40 95 -6 50 30 54 31 77 16 14 -9 45 -16 71 -16 45 0 51 -3
120 -70 l73 -71 33 14 c18 8 57 24 86 37 29 12 54 21 56 19 2 -2 6 -23 9 -46
5 -41 3 -44 -46 -86 -29 -24 -58 -47 -64 -51 -8 -4 -43 9 -82 29 -38 20 -77
35 -86 33 -10 -1 -28 -23 -41 -47 l-23 -44 34 -66 33 -66 147 -79 147 -79 75
-94 c54 -69 79 -109 89 -145 7 -28 19 -55 26 -59 23 -15 147 -41 158 -34 6 4
16 18 21 32 8 21 5 33 -16 64 -14 22 -25 53 -25 72 0 19 34 130 75 247 41 117
75 217 75 222 0 5 -31 39 -70 75 -86 81 -89 93 -19 79 46 -9 52 -8 65 9 8 11
13 31 12 45 -3 23 1 25 54 33 47 6 65 4 113 -15 54 -22 58 -26 84 -88 28 -65
29 -65 111 -105 l83 -40 -6 -115 c-7 -138 -33 -245 -87 -359 -51 -106 -111
-190 -188 -263 -53 -51 -65 -58 -101 -58 -38 0 -41 -2 -41 -29 0 -20 -8 -34
-27 -46 -20 -13 -28 -15 -31 -6 -2 7 -14 24 -27 38 -21 25 -28 27 -140 31
l-119 5 -36 -43 -36 -43 -87 2 c-81 2 -87 0 -117 -26 -17 -15 -32 -38 -33 -50
-1 -13 -8 -23 -15 -23 -33 0 -142 34 -214 67 -83 38 -79 32 -104 136 -3 15
-20 38 -37 51 -30 24 -30 25 -18 69 7 25 10 53 7 64 -3 10 -31 38 -62 62 -55
43 -78 78 -68 105 3 8 23 27 45 42 74 51 76 90 6 147 -34 28 -64 40 -135 57
-91 21 -122 41 -122 78 0 7 34 70 75 139 41 70 75 134 75 142 0 9 -9 29 -20
46 -14 22 -18 39 -14 67 5 31 2 41 -20 63 l-26 26 24 38 c129 204 345 351 597
406 86 18 267 18 354 0z m294 -114 c161 -96 276 -225 361 -403 38 -79 87 -244
76 -255 -3 -3 -30 5 -61 18 -54 22 -59 27 -93 98 -36 72 -39 75 -97 98 -54 21
-66 22 -129 14 -73 -10 -89 -22 -80 -58 8 -29 -13 -38 -59 -25 -21 6 -40 6
-50 0 -33 -18 -18 -51 53 -123 l69 -70 -74 -213 c-81 -229 -89 -279 -55 -322
18 -23 28 -70 14 -70 -3 0 -34 8 -69 17 -63 17 -64 17 -72 60 -6 30 -30 71
-88 147 l-80 104 -150 81 c-146 80 -151 83 -176 134 -24 50 -25 54 -11 85 9
18 20 32 25 32 5 0 37 -16 71 -35 35 -19 70 -35 79 -35 14 0 141 99 158 123 4
5 3 21 -2 36 -5 14 -11 39 -14 54 -3 15 -12 30 -21 34 -8 3 -48 -9 -89 -26
-41 -17 -80 -31 -86 -31 -6 0 -41 29 -78 65 -64 62 -70 65 -117 65 -27 0 -58
7 -68 15 -28 21 -40 19 -93 -14 -35 -22 -51 -27 -60 -19 -10 8 -6 18 17 48 24
31 30 47 30 89 l0 51 113 0 113 0 30 31 29 31 120 -7 c93 -6 126 -12 147 -26
39 -28 54 -24 120 35 60 53 61 53 141 60 45 4 87 12 94 18 7 6 13 31 13 57 0
41 12 71 29 71 3 0 34 -18 70 -39z m-1251 -431 c-2 -34 3 -54 15 -68 9 -10 17
-23 17 -29 0 -6 -34 -68 -75 -138 -41 -69 -75 -136 -75 -147 0 -12 11 -36 25
-53 21 -28 36 -35 102 -50 43 -9 85 -18 93 -21 19 -5 90 -72 90 -85 0 -5 -12
-19 -27 -32 -75 -61 -85 -76 -78 -110 4 -22 26 -50 72 -93 l66 -61 -13 -46
c-11 -41 -10 -50 4 -72 9 -14 21 -25 26 -25 12 0 26 -27 35 -69 l7 -35 -43 34
c-175 133 -298 317 -351 520 -17 67 -22 114 -22 220 0 148 12 213 65 350 27
72 32 79 50 70 15 -9 19 -20 17 -60z m1966 -509 c4 -5 -3 -7 -14 -4 -23 6 -26
13 -6 13 8 0 17 -4 20 -9z m-64 -5 c0 -2 -7 -7 -16 -10 -8 -3 -12 -2 -9 4 6
10 25 14 25 6z m104 -162 c9 -3 16 -12 16 -20 0 -18 8 -18 60 1 98 34 186 5
204 -68 18 -69 -51 -255 -104 -282 -38 -20 -191 -20 -228 -1 -33 17 -65 72
-92 156 -24 75 -25 111 -4 155 23 50 97 79 148 59z m-44 -434 c24 -24 26 -77
3 -102 -15 -17 -39 -18 -340 -18 l-323 0 0 70 0 70 320 0 c307 0 321 -1 340
-20z m-804 -5 c16 -4 44 -41 44 -60 0 -8 -98 -47 -177 -70 -90 -26 -254 -42
-327 -31 -56 9 -60 28 -17 70 29 28 31 28 110 21 88 -8 78 -12 145 66 14 17
26 18 108 13 51 -3 102 -7 114 -9z m1514 -4 c15 -29 12 -72 -7 -93 -15 -17
-39 -18 -345 -18 -322 0 -328 0 -318 19 5 11 10 32 10 46 0 14 -5 35 -10 46
-10 19 -4 19 324 19 321 0 336 -1 346 -19z m88 -212 l-3 -64 -314 -3 c-357 -3
-361 -2 -361 66 0 70 -15 66 342 72 178 3 327 2 331 -1 4 -3 7 -35 5 -70z
m-698 52 c-5 -11 -10 -34 -10 -51 0 -17 5 -40 10 -51 10 -19 5 -19 -237 -19
-284 0 -296 3 -301 64 -2 25 2 44 14 57 16 18 34 19 276 19 253 0 258 0 248
-19z m-1457 -6 c43 -8 103 -15 132 -15 62 0 86 -18 59 -44 -11 -11 -26 -15
-43 -12 -14 3 -44 8 -66 12 -22 4 -55 13 -72 21 -34 14 -102 53 -93 53 3 0 40
-7 83 -15z m153 -95 c11 0 14 -18 14 -86 l0 -85 -32 3 -33 3 -3 74 c-3 85 2
106 24 97 9 -3 22 -6 30 -6z m1201 -62 c34 -32 33 -119 -2 -154 l-24 -24 -313
2 -313 3 -3 84 c-2 46 -1 90 2 98 4 10 67 13 318 13 306 0 312 0 335 -22z
m-1013 -143 c138 -29 102 -35 -210 -35 -268 1 -296 2 -272 15 41 23 120 33
273 34 89 0 165 -5 209 -14z"/>
<path d="M2740 1737 c0 -9 10 -19 23 -23 32 -9 57 -34 57 -56 0 -11 7 -18 20
-18 52 0 -8 95 -67 106 -26 5 -33 3 -33 -9z"/>
<path d="M0 695 c0 -13 102 -15 860 -15 l860 0 0 -295 0 -295 -860 0 c-758 0
-860 -2 -860 -15 0 -13 104 -15 875 -15 l875 0 0 325 0 325 -875 0 c-771 0
-875 -2 -875 -15z"/>
<path d="M1857 703 c-4 -3 -7 -150 -7 -325 l0 -318 875 0 c771 0 875 2 875 15
0 13 -102 15 -860 15 l-860 0 0 295 0 295 860 0 c758 0 860 2 860 15 0 13
-103 15 -868 15 -478 0 -872 -3 -875 -7z"/>
<path d="M450 420 c-25 -25 -26 -52 -2 -73 16 -15 49 -17 254 -17 215 0 236 2
251 18 22 25 21 48 -3 72 -19 19 -33 20 -250 20 -217 0 -231 -1 -250 -20z
m485 -40 c0 -13 -33 -15 -229 -18 -173 -2 -231 1 -237 10 -4 7 -5 16 -3 20 3
5 110 7 237 6 198 -3 232 -5 232 -18z"/>
<path d="M2662 424 c-26 -18 -29 -56 -6 -78 13 -14 50 -16 250 -16 221 0 235
1 254 20 26 26 25 36 -5 65 l-24 25 -223 0 c-186 0 -227 -3 -246 -16z m476
-41 c-3 -17 -22 -18 -233 -18 -211 0 -230 1 -233 18 -3 16 13 17 233 17 220 0
236 -1 233 -17z"/>
</g>
</svg>
