<?xml version="1.0" standalone="no"?>
<!DOCTYPE svg PUBLIC "-//W3C//DTD SVG 20010904//EN"
 "http://www.w3.org/TR/2001/REC-SVG-20010904/DTD/svg10.dtd">
<svg version="1.0" xmlns="http://www.w3.org/2000/svg"
 width="100.000000pt" height="100.000000pt" viewBox="0 0 100.000000 100.000000"
 preserveAspectRatio="xMidYMid meet">
<metadata>
Created by potrace 1.14, written by Peter Selinger 2001-2017
</metadata>
<g transform="translate(0.000000,100.000000) scale(0.100000,-0.100000)"
fill="#000000" stroke="none">
<path d="M625 884 c-31 -38 -45 -64 -41 -76 3 -15 -7 -27 -40 -48 -61 -38
-146 -58 -260 -59 l-40 -1 -19 -77 c-21 -93 -48 -183 -121 -402 -29 -91 -52
-166 -51 -167 1 -2 97 28 212 65 116 38 261 82 323 97 l112 29 1 40 c1 129 22
209 70 276 15 21 26 28 39 24 20 -6 140 69 148 92 9 28 -29 23 -77 -11 -28
-20 -53 -36 -56 -36 -4 0 -49 43 -102 95 l-96 95 37 47 c20 26 35 51 33 57 -8
24 -28 13 -72 -40z m71 -189 c35 -35 64 -66 64 -68 0 -3 -16 -30 -35 -62 -37
-63 -62 -159 -64 -253 -1 -18 -7 -34 -13 -37 -7 -2 -80 -22 -162 -45 -83 -23
-187 -55 -233 -70 -46 -16 -83 -26 -83 -23 0 3 61 66 136 140 108 107 140 134
156 129 49 -12 106 51 88 99 -30 81 -157 50 -144 -35 5 -28 -6 -41 -137 -172
-79 -79 -141 -136 -137 -128 30 82 122 389 133 447 4 18 10 35 14 37 3 2 38 7
76 10 91 7 161 29 216 66 24 16 48 30 53 30 5 0 37 -29 72 -65z m-191 -215 c0
-20 -6 -26 -26 -28 -19 -2 -28 2 -31 15 -8 30 2 44 31 41 20 -2 26 -8 26 -28z"/>
</g>
</svg>
